<?xml version="1.0" encoding="UTF-8" standalone="no"?>
<svg
   xmlns:dc="http://purl.org/dc/elements/1.1/"
   xmlns:cc="http://creativecommons.org/ns#"
   xmlns:rdf="http://www.w3.org/1999/02/22-rdf-syntax-ns#"
   xmlns:svg="http://www.w3.org/2000/svg"
   xmlns="http://www.w3.org/2000/svg"
   xmlns:sodipodi="http://sodipodi.sourceforge.net/DTD/sodipodi-0.dtd"
   xmlns:inkscape="http://www.inkscape.org/namespaces/inkscape"
   width="12.195543"
   height="12.168629"
   preserveAspectRatio="xMidYMid meet"
   viewBox="0 0 12.195543 12.168629"
   version="1.1"
   id="svg6"
   sodipodi:docname="home-docs.svg"
   inkscape:version="0.92.5 (2060ec1f9f, 2020-04-08)">
  <metadata
     id="metadata12">
    <rdf:RDF>
      <cc:Work
         rdf:about="">
        <dc:format>image/svg+xml</dc:format>
        <dc:type
           rdf:resource="http://purl.org/dc/dcmitype/StillImage" />
      </cc:Work>
    </rdf:RDF>
  </metadata>
  <defs
     id="defs10" />
  <sodipodi:namedview
     pagecolor="#ffffff"
     bordercolor="#666666"
     borderopacity="1"
     objecttolerance="10"
     gridtolerance="10"
     guidetolerance="10"
     inkscape:pageopacity="0"
     inkscape:pageshadow="2"
     inkscape:window-width="1860"
     inkscape:window-height="1147"
     id="namedview8"
     showgrid="false"
     inkscape:zoom="27.812867"
     inkscape:cx="3.2238779"
     inkscape:cy="-1.0823879"
     inkscape:window-x="60"
     inkscape:window-y="24"
     inkscape:window-maximized="1"
     inkscape:current-layer="svg6" />
  <path
     d="m 3,0 h 6.1955426 c 1.6568544,0 3.0000004,1.3431458 3.0000004,3 v 6.1686294 c 0,1.6568546 -1.343146,2.9999996 -3.0000004,2.9999996 H 3 c -1.6568542,0 -3,-1.343145 -3,-2.9999996 V 3 C 0,1.3431458 1.3431458,0 3,0 Z M 3,1 C 1.8954305,1 1,1.8954305 1,3 v 6.1686294 c 0,1.1045696 0.8954305,1.9999996 2,1.9999996 h 6.1955426 c 1.1045694,0 2.0000004,-0.89543 2.0000004,-1.9999996 V 3 c 0,-1.1045695 -0.895431,-2 -2.0000004,-2 H 9 V 7.7 L 6,5.6 3,7.7 Z M 8,1 H 4 v 4.78 l 2,-1.401 2,1.4 z"
     id="path2"
     style="fill:#3d3d3d;fill-opacity:1"
     inkscape:connector-curvature="0"
     sodipodi:nodetypes="ssssssssscsssssssccccccccccc" />
</svg>
