<?xml version="1.0" encoding="utf-8"?>
<svg version="1.1"
	 id="Layer_1" xmlns:cc="http://creativecommons.org/ns#" xmlns:dc="http://purl.org/dc/elements/1.1/" xmlns:inkscape="http://www.inkscape.org/namespaces/inkscape" xmlns:rdf="http://www.w3.org/1999/02/22-rdf-syntax-ns#" xmlns:sodipodi="http://sodipodi.sourceforge.net/DTD/sodipodi-0.dtd" xmlns:svg="http://www.w3.org/2000/svg"
	 xmlns="http://www.w3.org/2000/svg" xmlns:xlink="http://www.w3.org/1999/xlink" x="0px" y="0px" viewBox="0 0 100 100"
	 style="enable-background:new 0 0 100 100;" xml:space="preserve">
<style type="text/css">
	.st0{fill:#414141;}
</style>
<path class="st0" d="M92.7,56.9H81.2L69.9,79.4c-1.4,2.4-3.9,4-6.6,4s-5.3-1.6-6.4-4l-20.2-40l-6.7,13.5c-1.3,2.4-3.7,4-6.4,4H7.4
	c-4,0-7.2-3.2-7.2-7.2s3.2-7.2,7.2-7.2H19l11.2-22.5c2.4-4.8,10.4-4.8,12.9,0l20.1,40l6.9-13.7c1.3-2.4,3.7-4,6.4-4h16.1
	c4,0,7.2,3.2,7.2,7.2S96.8,56.9,92.7,56.9z"/>
</svg>
