<svg id="Layer_1" data-name="Layer 1" xmlns="http://www.w3.org/2000/svg" viewBox="0 0 59.375 90.625"><defs><style>.cls-1{fill:#212121;}.cls-2{fill:#31c312;}</style></defs><title>noun_Alert_3283288</title><path class="cls-1" d="M72.9375,4.6875H27.0625a6.75,6.75,0,0,0-6.75,6.75v77.125a6.75,6.75,0,0,0,6.75,6.75h45.875a6.75,6.75,0,0,0,6.75-6.75V11.4375A6.75,6.75,0,0,0,72.9375,4.6875Zm-45.875,3.125h45.875a3.625,3.625,0,0,1,3.625,3.625h0v2.625H23.4375v-2.625a3.625,3.625,0,0,1,3.625-3.625Zm49.5,9.375v65.625H23.4375V17.1875Zm-3.625,75H27.0625a3.625,3.625,0,0,1-3.625-3.625v-2.625h53.125v2.625A3.625,3.625,0,0,1,72.9375,92.1875Z" transform="translate(-20.3125 -4.6875)"/><circle class="cls-2" cx="29.6875" cy="84.375" r="1.5625"/><path class="cls-2" d="M50,60a1.5626,1.5626,0,0,0,1.5625-1.5625v-26.5a1.5625,1.5625,0,0,0-3.125,0v26.5A1.5626,1.5626,0,0,0,50,60Z" transform="translate(-20.3125 -4.6875)"/><circle class="cls-2" cx="29.6875" cy="60.9375" r="2.4688"/></svg>