<svg id="Layer_1" data-name="Layer 1" xmlns="http://www.w3.org/2000/svg" viewBox="0 0 83 87"><defs><style>.cls-1{fill:#212121;}.cls-2{fill:#31c312;}</style></defs><title>noun_infinity square_891715</title><path class="cls-1" d="M78.5,6.917h-57a13.0147,13.0147,0,0,0-13,13v59a15.0167,15.0167,0,0,0,15,15h53a15.0167,15.0167,0,0,0,15-15v-59A13.0147,13.0147,0,0,0,78.5,6.917Zm-57,6h57a7.0081,7.0081,0,0,1,7,7V70.9726a8.1384,8.1384,0,0,1-8.1294,8.129H22.6294A8.1384,8.1384,0,0,1,14.5,70.9727V19.917A7.0081,7.0081,0,0,1,21.5,12.917Zm55,75h-53a9.01,9.01,0,0,1-9-9v-.3684a11.0892,11.0892,0,0,0,8.1294,3.553H77.3706A11.0892,11.0892,0,0,0,85.5,78.5486v.3684A9.01,9.01,0,0,1,76.5,87.917Z" transform="translate(-8.5 -6.917)"/><path class="cls-2" d="M37.968,58.8877c4.032,0,6.944-1.4769,9.856-4.6893C46.64,52.5,45.328,50.8384,44.08,49.14c-1.696,1.8831-3.52,3.0646-5.92,3.0646a5.4065,5.4065,0,0,1-5.408-5.7231,5.4165,5.4165,0,0,1,5.344-5.7231c9.024,0,10.944,18.1662,24.096,18.1662,6.4,0,11.808-4.6523,11.808-12.4062,0-7.8646-5.44-12.443-11.936-12.443a12.169,12.169,0,0,0-9.888,4.5784c1.312,1.6616,2.528,3.3969,3.808,5.0954a7.681,7.681,0,0,1,5.824-3.0277A5.4733,5.4733,0,0,1,67.216,46.26c0,3.6553-2.304,5.9815-5.376,5.9815-8.736,0-11.072-18.1661-23.872-18.1661C31.6,34.0754,26,38.58,26,46.3707,26,54.3831,31.472,58.8877,37.968,58.8877Z" transform="translate(-8.5 -6.917)"/></svg>