<?xml version="1.0" encoding="utf-8"?>
<svg version="1.1" id="Layer_1" xmlns="http://www.w3.org/2000/svg" xmlns:xlink="http://www.w3.org/1999/xlink" x="0px" y="0px"
	 viewBox="0 0 94.3 94.3" style="enable-background:new 0 0 94.3 94.3;" xml:space="preserve">
<style type="text/css">
	.st0{fill:#212121;}
	.st1{fill:#31C312;}
</style>
<path class="st0" d="M0.1,93.3c0,0.1,0.1,0.2,0.1,0.3c0,0,0,0.1,0.1,0.1c0,0,0,0,0.1,0c0.1,0.1,0.2,0.2,0.4,0.3c0,0,0.1,0,0.1,0.1
	c0.2,0.1,0.4,0.1,0.6,0.1h91.4c0.2,0,0.4-0.1,0.6-0.1c0,0,0.1-0.1,0.1-0.1c0.1-0.1,0.3-0.2,0.4-0.3c0,0,0.1,0,0.1-0.1
	c0,0,0-0.1,0.1-0.1c0-0.1,0.1-0.2,0.1-0.3c0-0.1,0.1-0.2,0.1-0.3c0,0,0-0.1,0-0.1V41c0,0,0-0.1,0-0.1c0-0.1,0-0.1,0-0.2
	c0-0.1,0-0.1-0.1-0.2c0-0.1-0.1-0.1-0.1-0.2c0,0,0-0.1-0.1-0.1c0,0,0,0,0,0c0,0-0.1,0-0.1-0.1c-0.1-0.1-0.1-0.1-0.2-0.2
	c0,0,0-0.1-0.1-0.1c-5.2-3.7-10.3-7.7-15.2-11.8V10.5c0-0.8-0.6-1.4-1.4-1.4H58.4l-7.7-7.7c-1.9-1.9-4.9-1.9-6.7,0l-7.8,7.7h-19
	c-0.8,0-1.4,0.6-1.4,1.4v17.6c-4.9,4.1-10,8-15.2,11.7c0,0,0,0.1-0.1,0.1C0.5,40,0.4,40,0.4,40.1c0,0-0.1,0-0.1,0.1c0,0,0,0,0,0
	c0,0,0,0.1-0.1,0.1c0,0.1-0.1,0.1-0.1,0.2c0,0.1,0,0.1-0.1,0.2c0,0.1,0,0.1,0,0.2c0,0,0,0.1,0,0.1v51.8C0,92.9,0,93,0,93
	C0,93.1,0.1,93.2,0.1,93.3z M34.6,66.7L2.9,90V43.8L34.6,66.7z M91.4,43.8V90L59.6,66.7L91.4,43.8z M57.2,68.5l31.3,22.9H5.8
	l31.3-22.9l4.5,3.2c1.7,1.2,3.6,1.8,5.6,1.8c2,0,3.9-0.6,5.6-1.8L57.2,68.5z M90.4,41l-11.9,8.6V31.7C82.3,34.9,86.3,38,90.4,41z
	 M46,3.4c0.7-0.7,2-0.7,2.7,0l5.7,5.7H40.3L46,3.4z M57.8,11.9C57.8,11.9,57.8,11.9,57.8,11.9C57.8,11.9,57.8,11.9,57.8,11.9h17.8
	v39.8L51,69.4c-2.3,1.7-5.5,1.7-7.8,0L18.7,51.7V11.9H57.8z M15.8,49.6L3.9,41c4.1-2.9,8.1-6,11.9-9.2V49.6z"/>
<path class="st1" d="M45.9,54.7c3.3,0,6.1-0.5,8.8-2l-0.8-2.1c-2,1.1-4.6,1.7-7.4,1.7c-7.3,0-12.7-5.1-12.7-13.3
	c0-10,6.8-16.4,14.8-16.4c7.6,0,11.9,5.1,11.9,12.3c0,5.7-2.8,9.1-5.3,9c-1.6-0.1-2.2-1.8-1.5-5.5l1.7-8.9c-1.3-0.6-3.2-1-5.3-1
	c-6.8,0-11.7,5.6-11.7,11.7c0,3.9,2.5,6.2,5.3,6.2c3,0,5.2-1.4,7-4.3h0.2c-0.1,3,1.7,4.3,3.6,4.3c4.6,0,8.8-4.3,8.8-11.7
	c0-8.2-5.8-14.2-14.3-14.2c-10.9,0-18,8.8-18,18.9C31,48.8,37.8,54.7,45.9,54.7z M50.9,37c-0.5,3.1-3.2,6.7-6,6.7
	c-2.2,0-3.3-1.6-3.3-3.7c0-4.8,3.5-8.9,7.8-8.9c1.1,0,2,0.2,2.5,0.3L50.9,37z"/>
</svg>
