<?xml version="1.0" encoding="UTF-8" standalone="no"?>
<svg
   xmlns:dc="http://purl.org/dc/elements/1.1/"
   xmlns:cc="http://creativecommons.org/ns#"
   xmlns:rdf="http://www.w3.org/1999/02/22-rdf-syntax-ns#"
   xmlns:svg="http://www.w3.org/2000/svg"
   xmlns="http://www.w3.org/2000/svg"
   xmlns:sodipodi="http://sodipodi.sourceforge.net/DTD/sodipodi-0.dtd"
   xmlns:inkscape="http://www.inkscape.org/namespaces/inkscape"
   version="1.1"
   id="Layer_1"
   x="0px"
   y="0px"
   viewBox="0 0 66.935486 50"
   xml:space="preserve"
   sodipodi:docname="home-ping.svg"
   width="66.935486"
   height="50"
   inkscape:version="0.92.5 (2060ec1f9f, 2020-04-08)"><metadata
   id="metadata13"><rdf:RDF><cc:Work
       rdf:about=""><dc:format>image/svg+xml</dc:format><dc:type
         rdf:resource="http://purl.org/dc/dcmitype/StillImage" /></cc:Work></rdf:RDF></metadata><defs
   id="defs11" /><sodipodi:namedview
   pagecolor="#ffffff"
   bordercolor="#666666"
   borderopacity="1"
   objecttolerance="10"
   gridtolerance="10"
   guidetolerance="10"
   inkscape:pageopacity="0"
   inkscape:pageshadow="2"
   inkscape:window-width="1920"
   inkscape:window-height="1144"
   id="namedview9"
   showgrid="false"
   inkscape:zoom="2.36"
   inkscape:cx="-38.335593"
   inkscape:cy="37.399999"
   inkscape:window-x="0"
   inkscape:window-y="24"
   inkscape:window-maximized="1"
   inkscape:current-layer="Layer_1" />
<style
   type="text/css"
   id="style2">
	.st0{fill-rule:evenodd;clip-rule:evenodd;fill:#414141;}
</style>
<g
   id="g6"
   transform="matrix(0.67204301,0,0,0.67204301,-0.1344086,-8.7365591)">
	<path
   class="st0"
   d="m 25.1,50.2 c 0,-9.3 5.2,-17.3 12.7,-21.6 l -5.4,-4.1 c -8.2,5.6 -13.5,15 -13.5,25.6 0,10.6 5.4,20 13.5,25.6 l 5.4,-4.1 C 30.3,67.5 25.1,59.5 25.1,50.2 Z m -18.7,0 C 6.4,36.8 12.5,24.8 22,16.8 L 17,13 C 6.7,22.1 0.2,35.4 0.2,50.2 0.2,65 6.7,78.2 17,87.4 l 5.1,-3.8 C 12.5,75.6 6.4,63.6 6.4,50.2 Z M 83,13 77.9,16.8 c 9.5,8 15.6,20 15.6,33.4 0,13.4 -6.1,25.4 -15.6,33.4 L 83,87.4 C 93.3,78.2 99.8,65 99.8,50.2 99.8,35.4 93.3,22.1 83,13 Z M 50,37.7 c -6.9,0 -12.4,5.6 -12.4,12.4 0,6.9 5.6,12.4 12.4,12.4 6.9,0 12.4,-5.6 12.4,-12.4 0,-6.8 -5.5,-12.4 -12.4,-12.4 z m 17.6,-13.2 -5.4,4.1 c 7.6,4.3 12.7,12.3 12.7,21.6 0,9.3 -5.2,17.3 -12.7,21.6 l 5.4,4.1 c 8.2,-5.6 13.5,-15 13.5,-25.6 0,-10.6 -5.4,-20.2 -13.5,-25.8 z"
   id="path4"
   inkscape:connector-curvature="0"
   style="clip-rule:evenodd;fill:#414141;fill-rule:evenodd" />
</g>
</svg>