<?xml version="1.0" encoding="utf-8"?>
<svg version="1.1"
	 id="Layer_1" xmlns:cc="http://creativecommons.org/ns#" xmlns:dc="http://purl.org/dc/elements/1.1/" xmlns:inkscape="http://www.inkscape.org/namespaces/inkscape" xmlns:rdf="http://www.w3.org/1999/02/22-rdf-syntax-ns#" xmlns:sodipodi="http://sodipodi.sourceforge.net/DTD/sodipodi-0.dtd" xmlns:svg="http://www.w3.org/2000/svg"
	 xmlns="http://www.w3.org/2000/svg" xmlns:xlink="http://www.w3.org/1999/xlink" x="0px" y="0px" viewBox="0 0 100 100"
	 style="enable-background:new 0 0 100 100;" xml:space="preserve">
<style type="text/css">
	.st0{fill-rule:evenodd;clip-rule:evenodd;fill:#414141;}
</style>
<g>
	<path class="st0" d="M25.1,50.2c0-9.3,5.2-17.3,12.7-21.6l-5.4-4.1c-8.2,5.6-13.5,15-13.5,25.6s5.4,20,13.5,25.6l5.4-4.1
		C30.3,67.5,25.1,59.5,25.1,50.2z M6.4,50.2c0-13.4,6.1-25.4,15.6-33.4L17,13C6.7,22.1,0.2,35.4,0.2,50.2S6.7,78.2,17,87.4l5.1-3.8
		C12.5,75.6,6.4,63.6,6.4,50.2z M83,13l-5.1,3.8c9.5,8,15.6,20,15.6,33.4c0,13.4-6.1,25.4-15.6,33.4l5.1,3.8
		C93.3,78.2,99.8,65,99.8,50.2S93.3,22.1,83,13z M50,37.7c-6.9,0-12.4,5.6-12.4,12.4c0,6.9,5.6,12.4,12.4,12.4
		c6.9,0,12.4-5.6,12.4-12.4C62.4,43.3,56.9,37.7,50,37.7z M67.6,24.5l-5.4,4.1c7.6,4.3,12.7,12.3,12.7,21.6s-5.2,17.3-12.7,21.6
		l5.4,4.1c8.2-5.6,13.5-15,13.5-25.6S75.7,30.1,67.6,24.5z"/>
</g>
</svg>
