<?xml version="1.0" encoding="UTF-8" standalone="no"?>
<svg
   xmlns:dc="http://purl.org/dc/elements/1.1/"
   xmlns:cc="http://creativecommons.org/ns#"
   xmlns:rdf="http://www.w3.org/1999/02/22-rdf-syntax-ns#"
   xmlns:svg="http://www.w3.org/2000/svg"
   xmlns="http://www.w3.org/2000/svg"
   xmlns:sodipodi="http://sodipodi.sourceforge.net/DTD/sodipodi-0.dtd"
   xmlns:inkscape="http://www.inkscape.org/namespaces/inkscape"
   version="1.1"
   id="Layer_1"
   x="0px"
   y="0px"
   viewBox="0 0 74.328361 50"
   xml:space="preserve"
   sodipodi:docname="home-status.svg"
   width="74.328362"
   height="50"
   inkscape:version="0.92.5 (2060ec1f9f, 2020-04-08)"><metadata
   id="metadata11"><rdf:RDF><cc:Work
       rdf:about=""><dc:format>image/svg+xml</dc:format><dc:type
         rdf:resource="http://purl.org/dc/dcmitype/StillImage" /></cc:Work></rdf:RDF></metadata><defs
   id="defs9" /><sodipodi:namedview
   pagecolor="#ffffff"
   bordercolor="#666666"
   borderopacity="1"
   objecttolerance="10"
   gridtolerance="10"
   guidetolerance="10"
   inkscape:pageopacity="0"
   inkscape:pageshadow="2"
   inkscape:window-width="1920"
   inkscape:window-height="1144"
   id="namedview7"
   showgrid="false"
   inkscape:zoom="2.36"
   inkscape:cx="49.8"
   inkscape:cy="33.4"
   inkscape:window-x="0"
   inkscape:window-y="24"
   inkscape:window-maximized="1"
   inkscape:current-layer="Layer_1" />
<style
   type="text/css"
   id="style2">
	.st0{fill:#414141;}
</style>
<path
   class="st0"
   d="m 69.029851,30.223881 h -8.58209 L 52.014925,47.014925 C 50.970149,48.80597 49.104478,50 47.089552,50 45.074627,50 43.134328,48.80597 42.313433,47.014925 l -15.074627,-29.850746 -5,10.074627 c -0.970149,1.791045 -2.761194,2.985075 -4.776119,2.985075 H 5.3731343 C 2.3880597,30.223881 0,27.835821 0,24.850746 0,21.865672 2.3880597,19.477612 5.3731343,19.477612 H 14.029851 L 22.38806,2.6865668 c 1.791044,-3.58208905 7.761194,-3.58208905 9.626865,0 l 15,29.8507462 5.149254,-10.22388 c 0.970149,-1.791045 2.761194,-2.985075 4.77612,-2.985075 h 12.014925 c 2.985075,0 5.373134,2.38806 5.373134,5.373135 0,2.985074 -2.238806,5.522388 -5.298507,5.522388 z"
   id="path4"
   inkscape:connector-curvature="0"
   style="fill:#414141;stroke-width:0.74626863" />
</svg>