<?xml version="1.0" encoding="UTF-8" standalone="no"?>
<svg
   xmlns:dc="http://purl.org/dc/elements/1.1/"
   xmlns:cc="http://creativecommons.org/ns#"
   xmlns:rdf="http://www.w3.org/1999/02/22-rdf-syntax-ns#"
   xmlns:svg="http://www.w3.org/2000/svg"
   xmlns="http://www.w3.org/2000/svg"
   xmlns:sodipodi="http://sodipodi.sourceforge.net/DTD/sodipodi-0.dtd"
   xmlns:inkscape="http://www.inkscape.org/namespaces/inkscape"
   viewBox="0 0 58.502995 61.00005"
   x="0px"
   y="0px"
   version="1.1"
   id="svg20"
   sodipodi:docname="product-docs-editor.svg"
   width="58.502995"
   height="61.00005"
   inkscape:version="0.92.5 (2060ec1f9f, 2020-04-08)">
  <metadata
     id="metadata26">
    <rdf:RDF>
      <cc:Work
         rdf:about="">
        <dc:format>image/svg+xml</dc:format>
        <dc:type
           rdf:resource="http://purl.org/dc/dcmitype/StillImage" />
      </cc:Work>
    </rdf:RDF>
  </metadata>
  <defs
     id="defs24" />
  <sodipodi:namedview
     pagecolor="#ffffff"
     bordercolor="#666666"
     borderopacity="1"
     objecttolerance="10"
     gridtolerance="10"
     guidetolerance="10"
     inkscape:pageopacity="0"
     inkscape:pageshadow="2"
     inkscape:window-width="1860"
     inkscape:window-height="1147"
     id="namedview22"
     showgrid="false"
     inkscape:zoom="11.8"
     inkscape:cx="50.704368"
     inkscape:cy="23.356648"
     inkscape:window-x="60"
     inkscape:window-y="24"
     inkscape:window-maximized="1"
     inkscape:current-layer="svg20" />
  <title
     id="title2">file-editor-pencil</title>
  <path
     inkscape:connector-curvature="0"
     id="path4"
     d="m 47.5,42.560024 a 1,1 0 0 0 -1,1 v 13.418 a 1.541,1.541 0 0 1 -1.556,1.522 H 4.056 A 1.541,1.541 0 0 1 2.5,56.978024 V 8.3270244 a 0.25,0.25 0 0 1 0.076,-0.18 l 5.642,-5.566 a 0.284,0.284 0 0 1 0.2,-0.081 h 36.526 a 1.541,1.541 0 0 1 1.556,1.522 V 15.700024 a 1,1 0 0 0 2,0 V 4.0220244 A 3.543,3.543 0 0 0 44.944,0.50002443 H 8.418 A 2.271,2.271 0 0 0 6.812,1.1570244 l -5.641,5.567 a 2.269,2.269 0 0 0 -0.671,1.603 V 56.978024 a 3.543,3.543 0 0 0 3.556,3.522 h 40.888 a 3.543,3.543 0 0 0 3.556,-3.522 v -13.418 a 1,1 0 0 0 -1,-1 z"
     style="stroke:#000000;stroke-opacity:1" />
  <path
     inkscape:connector-curvature="0"
     id="path6"
     d="M 12.5,11.500024 V 5.5000244 a 1,1 0 0 0 -2,0 v 4.9999996 h -5 a 1,1 0 0 0 0,2 h 6 a 1,1 0 0 0 1,-1 z" />
  <path
     inkscape:connector-curvature="0"
     id="path8"
     d="m 57.109,18.891024 a 5.015,5.015 0 0 0 -7.078,0.153 l -26.177,26.177 a 1,1 0 0 0 -0.234,0.37 l -3.061,8.573 a 1,1 0 0 0 1.277,1.278 l 8.572,-3.062 a 0.988,0.988 0 0 0 0.371,-0.234 l 23.267,-23.268 v 0 l 2.907,-2.907 a 5.193,5.193 0 0 0 1.547,-3.546 4.759,4.759 0 0 0 -1.391,-3.534 z m -3.768,7.865 -4.1,-4.1 0.525,-0.524 4.1,4.1 z m -22.3,22.3 -4.1,-4.1 20.889,-20.882 4.1,4.1 z m -7.891,3.793 2.277,-6.372 0.1,-0.1 4.1,4.1 -0.1,0.1 z m 32.392,-28.294 -0.263,0.262 -4.1,-4.1 0.262,-0.263 a 3.017,3.017 0 0 1 4.25,-0.153 2.778,2.778 0 0 1 0.8,2.066 3.212,3.212 0 0 1 -0.949,2.188 z"
     style="fill:#31c312;fill-opacity:1" />
  <path
     inkscape:connector-curvature="0"
     id="path10"
     d="m 36.5,22.500024 a 1,1 0 0 0 -1,-1 h -26 a 1,1 0 0 0 0,2 h 26 a 1,1 0 0 0 1,-1 z" />
  <path
     inkscape:connector-curvature="0"
     id="path12"
     d="m 9.5,31.500024 a 1,1 0 0 0 0,2 h 18 a 1,1 0 0 0 0,-2 z" />
</svg>
