<?xml version="1.0" encoding="utf-8"?>
<svg version="1.1" id="Layer_1" xmlns="http://www.w3.org/2000/svg" xmlns:xlink="http://www.w3.org/1999/xlink" x="0px" y="0px"
	 viewBox="0 0 100 65.6" style="enable-background:new 0 0 100 65.6;" xml:space="preserve">
<style type="text/css">
	.st0{fill:#212121;}
	.st1{fill:#31C312;}
</style>
<title>ic_exclamation_mark_laptop</title>
<path class="st0" d="M98.4,56.3h-8.1c0.2-0.5,0.3-1,0.3-1.5V4.6C90.6,2.1,88.5,0,86,0H14c-2.6,0-4.6,2.1-4.6,4.6v50.1
	c0,0.5,0.1,1,0.3,1.5H1.6c-0.9,0-1.6,0.7-1.6,1.6v0.4c0,3.5,2.8,7.4,6.6,7.4h86.7c3.8,0,6.6-3.9,6.6-7.4v-0.4
	C100,56.9,99.3,56.3,98.4,56.3z M12.5,54.7V4.6c0-0.8,0.7-1.5,1.5-1.5c0,0,0,0,0,0h72c0.8,0,1.5,0.7,1.5,1.5v50.1
	c0,0.8-0.7,1.5-1.5,1.5c0,0,0,0,0,0H14C13.2,56.3,12.5,55.6,12.5,54.7L12.5,54.7z M93.4,62.5H6.6c-1.5,0-2.9-1.6-3.3-3.1h93.4
	C96.2,61,94.9,62.5,93.4,62.5z"/>
<path class="st1" d="M51.4,13.3c-0.4-0.7-1.4-1-2.1-0.6c-0.2,0.1-0.4,0.3-0.6,0.6L31.5,43c-0.4,0.7-0.2,1.7,0.6,2.1
	c0.2,0.1,0.5,0.2,0.8,0.2h34.4c0.9,0,1.6-0.7,1.6-1.6c0-0.3-0.1-0.5-0.2-0.8L51.4,13.3z M35.5,42.2l14.5-25l14.5,25H35.5z"/>
<path class="st1" d="M48.9,36.4c-0.3,0.3-0.5,0.7-0.5,1.1c0,0.2,0,0.4,0.1,0.6c0,0.1,0.1,0.2,0.1,0.3c0.2,0.2,0.4,0.4,0.7,0.6
	c0.4,0.2,0.8,0.2,1.2,0c0.2-0.1,0.4-0.2,0.5-0.3c0.6-0.6,0.6-1.6,0-2.2C50.5,35.8,49.5,35.8,48.9,36.4z"/>
<path class="st1" d="M48.4,27.3v5.5c0,0.9,0.7,1.6,1.6,1.6s1.6-0.7,1.6-1.6v-5.5c0-0.9-0.7-1.6-1.6-1.6S48.4,26.5,48.4,27.3z"/>
</svg>
