<svg id="Layer_1" data-name="Layer 1" xmlns="http://www.w3.org/2000/svg" viewBox="0 0 87.5 81.25"><defs><style>.cls-1{fill:#212121;}.cls-2{fill:#31c312;}</style></defs><title>noun_stacked bar chart_151022</title><path class="cls-1" d="M90.625,87.5V9.375h-25V87.5H62.5V9.375h-25V87.5H34.375V9.375h-25V87.5H6.25v3.125h87.5V87.5ZM12.5,12.5H31.25V65.625H12.5Zm0,75V68.75H31.25V87.5Zm28.125-75h18.75V31.25H40.625Zm0,75V34.375h18.75V87.5Zm28.125-75H87.5V50H68.75Zm0,75V53.125H87.5V87.5Z" transform="translate(-6.25 -9.375)"/><rect class="cls-2" x="62.5" y="40.5833" width="18.7441" height="3.1667"/><rect class="cls-2" x="34.3747" y="21.8725" width="18.7441" height="3.1667"/><rect class="cls-2" x="6.2555" y="56.2304" width="18.7441" height="3.1667"/></svg>