<svg id="Layer_1" data-name="Layer 1" xmlns="http://www.w3.org/2000/svg" viewBox="0 0 66.8441 49.5937"><defs><style>.cls-1{fill:#31c312;}.cls-2{fill:#212121;}</style></defs><title>noun_Monitor_2583504</title><path class="cls-1" d="M50.0571,70.2623a1.0785,1.0785,0,0,1-1.0781-1.0781V66.1611a1.0782,1.0782,0,0,1,2.1563,0v3.0231A1.0779,1.0779,0,0,1,50.0571,70.2623Z" transform="translate(-16.5778 -25.2031)"/><path class="cls-2" d="M82.23,67.2392H17.6562a1.0781,1.0781,0,0,1-.8878-1.69l4.0074-5.8133a1.0764,1.0764,0,0,1,.8873-.4663H78.3364a1.0787,1.0787,0,0,1,.8959.4782l3.8931,5.8132a1.0779,1.0779,0,0,1-.8959,1.6781ZM19.709,65.083H80.21l-2.4489-3.657H22.23Z" transform="translate(-16.5778 -25.2031)"/><path class="cls-2" d="M77.65,74.7969H22.2356a5.7,5.7,0,0,1-5.6575-5.7286V66.1611a1.0785,1.0785,0,0,1,1.0781-1.0781H82.3437a1.0785,1.0785,0,0,1,1.0782,1.0781v2.9066A5.86,5.86,0,0,1,77.65,74.7969ZM18.7344,67.2392v1.8285a3.5416,3.5416,0,0,0,3.5012,3.5729H77.65A3.7433,3.7433,0,0,0,81.2667,69.02l-.0005-1.7805Z" transform="translate(-16.5778 -25.2031)"/><path class="cls-2" d="M78.3364,61.426H21.6636a1.0785,1.0785,0,0,1-1.0781-1.0782v-29.3a5.8153,5.8153,0,0,1,5.7723-5.8451H73.6427a5.8157,5.8157,0,0,1,5.7723,5.8451v29.3A1.0786,1.0786,0,0,1,78.3364,61.426ZM22.7418,59.27h54.517V31.0482a3.6572,3.6572,0,0,0-3.6161-3.6888H26.3578a3.6571,3.6571,0,0,0-3.616,3.6888Z" transform="translate(-16.5778 -25.2031)"/><path class="cls-1" d="M48.7909,51.7051a1.0776,1.0776,0,0,1-.9321-.5364l-5.3361-9.1846L40.02,44.5382a1.0787,1.0787,0,0,1-.77.3235H32.6643a1.0782,1.0782,0,0,1,0-2.1563h6.1318l3.1773-3.2419a1.0788,1.0788,0,0,1,1.7023.2129l5.0176,8.6363L54.67,35.68a1.0785,1.0785,0,0,1,1.9687.0432l2.2754,5.4078h8.4223a1.0782,1.0782,0,0,1,0,2.1563H58.1975a1.0786,1.0786,0,0,1-.994-.66l-1.6172-3.843L49.765,51.0878a1.079,1.079,0,0,1-.9294.6162Z" transform="translate(-16.5778 -25.2031)"/></svg>